<svg width="40" height="40" viewBox="0 0 40 40" fill="none" xmlns="http://www.w3.org/2000/svg">
<g id="Reset Button">
<circle id="Reset Circle" cx="20" cy="20" r="20" fill="#E72323"/>
<g id="Reset Icon">
<path d="M6.92299 24.6139C7.7563 27.5246 9.48822 30.0963 11.8705 31.9604C14.2528 33.8246 17.1632 34.8856 20.1846 34.9913C23.206 35.0969 26.1832 34.2419 28.6895 32.5487C31.1958 30.8555 33.1027 28.4111 34.1367 25.5657C35.1706 22.7204 35.2787 19.6203 34.4454 16.7096C33.6121 13.799 31.8802 11.2273 29.4979 9.36309C27.1156 7.4989 24.2052 6.43794 21.1838 6.33227C18.1625 6.2266 15.1626 6.85728 12.6562 8.55048L14.6308 12.2586C16.4354 11.0395 18.8686 10.2684 21.0439 10.3445C23.2193 10.4206 25.3148 11.1845 27.0301 12.5267C28.7453 13.8689 29.9923 15.7206 30.5923 17.8162C31.1923 19.9119 31.1144 22.144 30.37 24.1926C29.6255 26.2413 28.2526 28.0013 26.448 29.2204C24.6434 30.4395 22.4999 31.0551 20.3245 30.979C18.1491 30.9029 16.0536 30.139 14.3384 28.7968C12.6231 27.4546 11.3761 25.603 10.7761 23.5073L6.92299 24.6139Z" fill="#F5F6F7"/>
<path d="M11.3439 6L16.6878 15.2704H6L11.3439 6Z" fill="#F5F6F7"/>
</g>
</g>
</svg>
